<?xml version="1.0" standalone="no"?>
<!DOCTYPE svg PUBLIC "-//W3C//DTD SVG 20010904//EN"
 "http://www.w3.org/TR/2001/REC-SVG-20010904/DTD/svg10.dtd">
<svg version="1.0" xmlns="http://www.w3.org/2000/svg"
 width="512.000000pt" height="512.000000pt" viewBox="0 0 512.000000 512.000000"
 preserveAspectRatio="xMidYMid meet">
<metadata>
Created by potrace 1.14, written by Peter Selinger 2001-2017
</metadata>
<g transform="translate(0.000000,512.000000) scale(0.100000,-0.100000)"
fill="#000000" stroke="none">
<path d="M635 4966 c-72 -19 -97 -30 -202 -92 -120 -70 -248 -194 -291 -280
-29 -57 -60 -187 -76 -314 -9 -68 36 -307 72 -383 38 -80 110 -175 173 -227
56 -48 173 -110 207 -110 12 0 22 -5 22 -10 0 -6 -21 -45 -46 -86 -125 -206
-173 -398 -205 -814 -36 -476 72 -813 349 -1088 130 -129 421 -314 584 -373
62 -22 69 -27 74 -57 4 -18 4 -48 1 -67 -11 -70 28 -146 90 -171 l33 -14 -16
-38 c-18 -41 -36 -107 -84 -317 -17 -77 -40 -171 -51 -210 -17 -65 -52 -224
-62 -288 -4 -26 -3 -27 47 -27 l51 0 53 212 c29 117 59 249 67 293 19 95 56
237 65 248 4 5 24 1 45 -7 21 -9 60 -16 88 -16 32 0 57 -6 68 -16 26 -23 88
-43 135 -44 39 0 45 -4 103 -75 34 -41 65 -75 70 -75 4 0 13 -12 19 -26 7 -14
8 -23 2 -19 -6 4 -10 -9 -10 -32 0 -100 -49 -282 -106 -394 l-24 -49 900 0
900 0 0 253 c0 172 -5 285 -16 357 -22 156 -43 384 -36 392 4 4 48 21 97 38
234 82 390 179 606 378 65 61 188 259 214 346 29 97 76 317 91 429 27 184 4
473 -55 707 -16 63 -32 122 -35 130 -5 12 15 21 92 44 348 103 481 299 482
707 0 182 -17 263 -82 399 -35 71 -57 100 -138 180 -111 110 -197 161 -320
190 -123 30 -220 34 -343 16 -171 -26 -258 -66 -386 -181 -79 -69 -164 -177
-175 -220 -4 -14 -11 -25 -16 -25 -6 0 -67 25 -138 56 -189 83 -270 110 -405
134 -67 11 -178 33 -247 47 -208 42 -522 61 -736 43 -165 -13 -316 -33 -364
-48 -19 -6 -63 -16 -98 -22 -35 -6 -69 -13 -76 -16 -9 -3 -18 15 -29 61 -19
76 -81 213 -126 278 -98 143 -282 263 -448 292 -96 18 -291 18 -358 1z m412
-142 c-3 -3 -12 -4 -19 -1 -8 3 -5 6 6 6 11 1 17 -2 13 -5z m-700 -370 c-3 -3
-12 -4 -19 -1 -8 3 -5 6 6 6 11 1 17 -2 13 -5z m1115 -128 c7 4 8 2 4 -5 -9
-13 -26 -5 -25 12 0 9 2 8 6 -1 2 -6 10 -9 15 -6z m-922 -52 c138 -66 217
-144 284 -280 l34 -68 -106 -116 c-58 -63 -116 -126 -128 -139 l-23 -24 -63
22 c-121 44 -242 149 -291 254 -26 54 -67 235 -67 293 0 43 26 70 82 84 24 6
48 13 53 15 6 3 39 3 75 2 52 -2 82 -11 150 -43z m1887 20 c-3 -3 -12 -4 -19
-1 -8 3 -5 6 6 6 11 1 17 -2 13 -5z m-1397 -228 c0 -3 -4 -8 -10 -11 -5 -3
-10 -1 -10 4 0 6 5 11 10 11 6 0 10 -2 10 -4z m3935 -363 c48 -18 50 -20 47
-53 -4 -49 -40 -166 -67 -220 -54 -105 -98 -147 -215 -206 -53 -26 -218 -74
-234 -68 -16 6 -126 229 -126 254 0 73 137 242 222 274 126 48 276 56 373 19z
m-841 -158 c-4 -8 -11 -15 -16 -15 -6 0 -5 6 2 15 7 8 14 15 16 15 2 0 1 -7
-2 -15z m-3677 -627 c-3 -8 -6 -5 -6 6 -1 11 2 17 5 13 3 -3 4 -12 1 -19z
m-30 -190 c-3 -8 -6 -5 -6 6 -1 11 2 17 5 13 3 -3 4 -12 1 -19z m1600 -344
c-3 -3 -12 -4 -19 -1 -8 3 -5 6 6 6 11 1 17 -2 13 -5z m385 -23 c32 -13 63
-19 69 -15 8 4 9 3 5 -4 -8 -14 30 -36 46 -26 6 4 8 3 5 -3 -4 -6 6 -19 22
-30 40 -25 101 -101 136 -170 24 -48 30 -74 33 -145 6 -116 -3 -168 -38 -219
-16 -24 -26 -47 -23 -53 3 -5 2 -6 -4 -3 -5 4 -23 -7 -38 -23 -34 -35 -108
-65 -186 -74 -48 -6 -57 -4 -75 15 -10 11 -39 33 -63 47 -36 21 -58 26 -121
27 -56 1 -82 6 -94 17 -56 56 -123 75 -212 58 -62 -12 -66 -11 -88 9 -12 12
-25 18 -29 15 -3 -3 -3 4 0 17 5 17 3 21 -8 17 -17 -6 -21 27 -21 150 0 93 3
122 13 122 4 0 10 12 13 26 9 36 73 133 92 141 8 3 13 12 10 20 -3 8 -2 11 3
8 12 -7 82 40 73 49 -3 4 2 4 12 0 13 -5 17 -4 12 4 -5 8 -2 10 8 6 9 -3 16
-1 16 6 0 6 4 8 10 5 5 -3 19 -1 30 5 68 36 297 37 392 1z m575 -63 c-3 -8 -6
-5 -6 6 -1 11 2 17 5 13 3 -3 4 -12 1 -19z m1520 -80 c-3 -8 -6 -5 -6 6 -1 11
2 17 5 13 3 -3 4 -12 1 -19z m-2783 -376 c3 -5 -1 -9 -9 -9 -8 0 -12 4 -9 9 3
4 7 8 9 8 2 0 6 -4 9 -8z m254 -196 c13 -7 34 -30 46 -52 25 -46 50 -53 108
-29 51 20 103 13 143 -19 25 -20 29 -31 34 -97 6 -74 6 -74 41 -85 52 -17 72
-50 68 -112 l-3 -52 -35 23 c-61 41 -104 50 -218 44 -133 -6 -194 -34 -262
-119 -64 -79 -84 -141 -85 -260 0 -53 -4 -100 -8 -104 -4 -5 -23 8 -42 28 -37
42 -73 55 -103 39 -27 -15 -75 -14 -90 1 -7 7 -12 28 -12 48 0 45 -22 77 -60
85 -61 13 -79 86 -35 145 31 42 31 64 0 115 -14 22 -25 50 -25 62 0 31 45 80
80 88 43 9 60 31 60 75 0 54 15 88 45 102 22 10 33 8 71 -10 24 -12 58 -22 75
-22 26 0 33 6 49 42 29 65 103 95 158 64z m-1103 -76 c3 -5 1 -10 -4 -10 -6 0
-11 5 -11 10 0 6 2 10 4 10 3 0 8 -4 11 -10z m452 -162 c-3 -8 -6 -5 -6 6 -1
11 2 17 5 13 3 -3 4 -12 1 -19z m-20 -70 c-3 -8 -6 -5 -6 6 -1 11 2 17 5 13 3
-3 4 -12 1 -19z m13 -28 c0 -5 -5 -10 -11 -10 -5 0 -7 5 -4 10 3 6 8 10 11 10
2 0 4 -4 4 -10z m1227 -162 c-3 -8 -6 -5 -6 6 -1 11 2 17 5 13 3 -3 4 -12 1
-19z m-462 -18 c3 -6 -1 -7 -9 -4 -18 7 -21 14 -7 14 6 0 13 -4 16 -10z m1188
-227 c-7 -2 -21 -2 -30 0 -10 3 -4 5 12 5 17 0 24 -2 18 -5z m-516 -59 c-3 -3
-12 -4 -19 -1 -8 3 -5 6 6 6 11 1 17 -2 13 -5z"/>
<path d="M2185 2277 c-43 -14 -73 -45 -85 -86 -10 -36 -4 -102 11 -133 9 -18
-29 -45 -147 -107 -73 -38 -93 -70 -69 -107 30 -46 93 -30 219 55 41 28 79 51
84 51 6 0 17 -11 25 -24 35 -53 128 -144 166 -160 48 -22 87 -15 103 19 14 31
-6 64 -63 102 -22 15 -58 51 -80 82 -39 54 -39 55 -20 75 44 49 53 104 26 159
-29 59 -109 94 -170 74z"/>
<path d="M1950 1478 c0 -19 2 -20 10 -8 13 19 13 30 0 30 -5 0 -10 -10 -10
-22z"/>
<path d="M1983 1458 c3 -9 1 -19 -6 -22 -7 -2 -1 -3 12 -2 28 3 38 20 20 32
-9 5 -10 2 -6 -12 7 -18 6 -18 -9 1 -13 15 -15 16 -11 3z"/>
<path d="M1670 1414 c0 -8 5 -12 10 -9 6 3 10 10 10 16 0 5 -4 9 -10 9 -5 0
-10 -7 -10 -16z"/>
<path d="M1721 1394 c0 -11 3 -14 6 -6 3 7 2 16 -1 19 -3 4 -6 -2 -5 -13z"/>
<path d="M1665 1379 c-9 -14 -2 -20 14 -10 8 6 9 11 3 15 -6 3 -14 1 -17 -5z"/>
<path d="M1854 1331 c4 -5 0 -11 -6 -14 -7 -2 -9 -8 -5 -13 5 -5 14 -2 20 7 7
9 19 18 27 22 9 3 3 6 -13 6 -16 1 -26 -3 -23 -8z"/>
<path d="M2170 1310 c-9 -16 -8 -18 5 -14 8 4 15 12 15 20 0 20 -7 17 -20 -6z"/>
<path d="M1895 1309 c7 -11 35 -12 35 -1 0 4 -9 8 -20 9 -11 1 -18 -2 -15 -8z"/>
<path d="M2132 1296 c7 -8 15 -12 17 -11 5 6 -10 25 -20 25 -5 0 -4 -6 3 -14z"/>
<path d="M1867 1283 c-3 -5 6 -9 20 -10 19 -1 22 1 12 8 -17 11 -26 11 -32 2z"/>
<path d="M1579 1210 l-24 -20 28 11 c15 7 27 16 27 21 0 12 -5 10 -31 -12z"/>
<path d="M1603 1194 c-7 -3 -9 -12 -6 -20 4 -10 0 -12 -13 -7 -17 6 -17 5 -5
-10 20 -24 28 -21 33 13 3 17 4 30 4 29 -1 0 -6 -3 -13 -5z"/>
<path d="M1630 1165 c-7 -9 -8 -15 -2 -15 5 0 12 7 16 15 3 8 4 15 2 15 -2 0
-9 -7 -16 -15z"/>
<path d="M1786 1125 c4 -8 10 -12 15 -9 14 8 10 24 -6 24 -9 0 -12 -6 -9 -15z"/>
<path d="M1823 1115 c-3 -9 -3 -19 1 -22 3 -4 6 1 6 11 0 10 5 14 12 10 7 -4
8 -3 4 4 -10 16 -15 15 -23 -3z"/>
<path d="M1790 1090 c0 -5 5 -10 11 -10 5 0 7 5 4 10 -3 6 -8 10 -11 10 -2 0
-4 -4 -4 -10z"/>
<path d="M1660 1001 c-7 -13 -7 -22 0 -26 5 -3 10 3 10 14 0 10 6 22 13 24 9
4 9 6 0 6 -7 1 -17 -8 -23 -18z"/>
<path d="M1710 997 c0 -8 7 -14 15 -14 11 0 12 4 4 14 -6 7 -13 13 -15 13 -2
0 -4 -6 -4 -13z"/>
<path d="M1700 966 c0 -2 7 -7 16 -10 8 -3 12 -2 9 4 -6 10 -25 14 -25 6z"/>
</g>
</svg>
